# xmcd CD database file
#
# Track frame offsets:
#	150
#	14370
#	24882
#	40860
#	56928
#	71664
#	89497
#	100900
#	111995
#	126509
#
# Disc length: 1883 seconds
#
# Revision: 0
# Processed by: cddbd v1.5.2PL0 Copyright (c) Steve Scherf et al.
# Submitted via: CDex 1.51
#
DISCID=8a07590a
DTITLE=Shelly Rae - Shelly Rae
DYEAR=2006
DGENRE=Country
TTITLE0=Shelly Rae =If You Cant Stand The Heat 
TTITLE1=Shelly Rae =Dream  Big
TTITLE2=Shelly Rae =I Only See Me With You
TTITLE3=Shelly Rae =In Broad Moonlight
TTITLE4=Shelly Rae =One  Eighty
TTITLE5=Shelly Rae =Her  Secret
TTITLE6=Shelly Rae =Wild Wild Rose 
TTITLE7=Shelly Rae =Kiss My Heart Goodbye 
TTITLE8=Shelly Rae =Prove Me Wrong  
TTITLE9=Shelly Rae =Heroes Never Die 
EXTD=YEAR: 2006
EXTT0=
EXTT1=
EXTT2=
EXTT3=
EXTT4=
EXTT5=
EXTT6=
EXTT7=
EXTT8=
EXTT9=
PLAYORDER=
